<?xml version="1.0" encoding="UTF-8"?>
<svg width="1600" height="1000" viewBox="0 0 1600 1000" fill="none" xmlns="http://www.w3.org/2000/svg">
  <rect width="1600" height="1000" fill="#EDF3EF"/>
  <rect x="0" y="0" width="1600" height="620" fill="url(#wall)"/>
  <rect x="0" y="620" width="1600" height="380" fill="#C4934F" opacity="0.18"/>
  <rect x="120" y="150" width="980" height="430" rx="32" fill="#EDF3EF" opacity="0.92"/>
  <rect x="170" y="210" width="320" height="250" rx="18" fill="#567C73" opacity="0.82"/>
  <rect x="540" y="210" width="500" height="36" rx="18" fill="#213432" opacity="0.14"/>
  <rect x="540" y="278" width="420" height="24" rx="12" fill="#213432" opacity="0.12"/>
  <rect x="540" y="332" width="360" height="24" rx="12" fill="#213432" opacity="0.1"/>
  <rect x="540" y="386" width="390" height="24" rx="12" fill="#213432" opacity="0.1"/>
  <rect x="1240" y="160" width="220" height="280" rx="110" fill="#567C73" opacity="0.18"/>
  <rect x="180" y="680" width="460" height="200" rx="26" fill="#C4934F" opacity="0.88"/>
  <rect x="700" y="700" width="240" height="140" rx="22" fill="#567C73" opacity="0.72"/>
  <rect x="980" y="650" width="420" height="230" rx="28" fill="#213432" opacity="0.08"/>
  <rect x="1040" y="708" width="210" height="26" rx="13" fill="#213432" opacity="0.16"/>
  <rect x="1040" y="758" width="280" height="18" rx="9" fill="#213432" opacity="0.12"/>
  <rect x="1040" y="800" width="240" height="18" rx="9" fill="#213432" opacity="0.12"/>
  <text x="180" y="785" font-family="Georgia, serif" font-size="64" fill="#EDF3EF">Library Study</text>
  <text x="180" y="842" font-family="Arial, sans-serif" font-size="28" letter-spacing="5" fill="#EDF3EF" opacity="0.85">DESIGN STUDY 05</text>
  <text x="120" y="92" font-family="Arial, sans-serif" font-size="26" letter-spacing="6" fill="#213432" opacity="0.65">TARMEER CASE IMAGE</text>
  <text x="120" y="950" font-family="Arial, sans-serif" font-size="26" letter-spacing="4" fill="#213432" opacity="0.8">OMAR AL FAYED</text>
  <defs>
    <linearGradient id="wall" x1="1600" y1="0" x2="0" y2="620" gradientUnits="userSpaceOnUse">
      <stop stop-color="#567C73" stop-opacity="0.3"/>
      <stop offset="1" stop-color="#EDF3EF"/>
    </linearGradient>
  </defs>
</svg>