<?xml version="1.0" encoding="UTF-8"?>
<svg width="960" height="960" viewBox="0 0 960 960" fill="none" xmlns="http://www.w3.org/2000/svg">
  <rect width="960" height="960" fill="#F6EFE2"/>
  <circle cx="480" cy="480" r="400" fill="url(#bg)"/>
  <circle cx="480" cy="360" r="170" fill="#D8B36A" opacity="0.95"/>
  <path d="M225 760C250 610 350 540 480 540C610 540 710 610 735 760" fill="#8C5A3C"/>
  <circle cx="420" cy="340" r="14" fill="#2C211A"/>
  <circle cx="540" cy="340" r="14" fill="#2C211A"/>
  <path d="M410 420C435 442 460 452 480 452C500 452 525 442 550 420" stroke="#2C211A" stroke-width="18" stroke-linecap="round"/>
  <circle cx="690" cy="220" r="92" fill="#2C211A" opacity="0.1"/>
  <circle cx="270" cy="720" r="58" fill="#D8B36A" opacity="0.18"/>
  <rect x="82" y="96" width="164" height="72" rx="36" fill="#2C211A" opacity="0.12"/>
  <text x="164" y="142" text-anchor="middle" font-family="Georgia, serif" font-size="34" fill="#2C211A">TARMEER</text>
  <text x="480" y="840" text-anchor="middle" font-family="Georgia, serif" font-size="76" fill="#2C211A">Salma Nasser</text>
  <text x="480" y="905" text-anchor="middle" font-family="Arial, sans-serif" font-size="40" letter-spacing="8" fill="#2C211A" opacity="0.78">INTERIOR DESIGNER</text>
  <circle cx="770" cy="760" r="74" fill="#D8B36A"/>
  <text x="770" y="785" text-anchor="middle" font-family="Arial, sans-serif" font-size="56" font-weight="700" fill="#F6EFE2">SN</text>
  <defs>
    <linearGradient id="bg" x1="140" y1="140" x2="780" y2="820" gradientUnits="userSpaceOnUse">
      <stop stop-color="#D8B36A"/>
      <stop offset="1" stop-color="#8C5A3C"/>
    </linearGradient>
  </defs>
</svg>