<svg xmlns="http://www.w3.org/2000/svg" xmlns:xlink="http://www.w3.org/1999/xlink" fill="none" version="1.1" width="423.34588623046875" height="423.3459777832031" viewBox="0 0 423.34588623046875 423.3459777832031"><path d="M211.67294,0C276.08121,0,333.75909,28.776764,372.58569,74.162064L310.23251,74.162064C281.51968,53.51952,247.03645,42.440617,211.67294,42.496532C167.75409,42.496532,127.75015,59.232132,97.677681,86.6717L382.49539,86.6717C408.17117,121.69896,423.34589,164.91078,423.34589,211.67085C423.34589,328.57672,328.58334,423.34598,211.67294,423.34598C147.26067,423.34598,89.580208,394.56906,50.760368,349.18146L113.11337,349.18146C141.82602,369.82495,176.30949,380.90494,211.67293,380.84891C255.59215,380.84891,295.60239,364.11133,325.67044,336.66956L224.60287,336.66956L224.60287,132.23872L201.20322,132.23872L201.20322,336.66956L40.848587,336.66956C15.175159,301.64264,0,258.4306,0,211.67085C0,94.762535,94.76255,0,211.67294,0ZM87.90815,96.351448C59.746353,126.56824,42.496567,167.10175,42.496567,211.67085C42.453796,239.37405,49.243092,266.66046,62.263264,291.11368L155.64061,291.11368L155.64061,132.23872L133.47525,132.23872L133.47525,268.31152L87.90815,268.31152L87.90815,96.351448ZM361.07843,132.24294L270.16983,132.24294L270.16983,291.10931L289.86639,291.10931L289.86639,155.6405L335.42899,155.6405L335.42899,327.00092C363.5972,296.7843,380.83841,256.24838,380.83841,211.67732C380.88458,183.97571,374.09683,156.69054,361.07843,132.23872L361.07843,132.24294Z" fill-rule="evenodd" fill="#C6A065" fill-opacity="1"/></svg>