<?xml version="1.0" encoding="UTF-8"?>
<svg width="284px" height="144px" viewBox="0 0 284 144" version="1.1" xmlns="http://www.w3.org/2000/svg" xmlns:xlink="http://www.w3.org/1999/xlink">
    <!-- Generator: Sketch 57.1 (83088) - https://sketch.com -->
    <title>Group 20</title>
    <desc>Created with Sketch.</desc>
    <defs>
        <polygon id="path-1" points="0.124075327 0.0078045977 56.7708265 0.0078045977 56.7708265 96.5519578 0.124075327 96.5519578"></polygon>
        <polygon id="path-3" points="0 144 285 144 285 1 0 1"></polygon>
    </defs>
    <g id="Page-1" stroke="none" stroke-width="1" fill="none" fill-rule="evenodd">
        <g id="Fitout---1" transform="translate(-488.000000, -719.000000)">
            <g id="Group-20" transform="translate(488.000000, 719.000000)">
                <g id="Group-3" transform="translate(49.000000, 0.000000)">
                    <mask id="mask-2" fill="white">
                        <use xlink:href="#path-1"></use>
                    </mask>
                    <g id="Clip-2"></g>
                    <path d="M13.3932676,0.00763735632 C13.3932676,0.00763735632 -36.3442618,111.922224 56.7708265,94.7627006 C56.7708265,94.7627006 4.79129706,103.357235 13.3932676,0.00763735632" id="Fill-1" fill="#FFFFFF" mask="url(#mask-2)"></path>
                </g>
                <path d="M1,143 C1,143 8.47622306,95.6358191 121,121.196647 C121,121.196647 28.289918,54.2850585 1,143" id="Fill-4" fill="#FFFFFF"></path>
                <path d="M88,5 C88,5 -23.5528275,80.7932577 29.9925964,144 C29.9925964,144 -67.0590748,78.2761775 88,5" id="Fill-6" fill="#FFFFFF"></path>
                <mask id="mask-4" fill="white">
                    <use xlink:href="#path-3"></use>
                </mask>
                <g id="Clip-9"></g>
                <polygon id="Fill-8" fill="#FFFFFF" mask="url(#mask-4)" points="115 71 284 71 284 70 115 70"></polygon>
                <polygon id="Fill-10" fill="#FFFFFF" mask="url(#mask-4)" points="117 78 139 78 139 84.2311643 125.938165 84.2311643 125.938165 89.2956682 137.095592 89.2956682 137.095592 95.1504017 125.938165 95.1504017 125.938165 107 117 107"></polygon>
                <polygon id="Fill-11" fill="#FFFFFF" mask="url(#mask-4)" points="144 107 153 107 153 78 144 78"></polygon>
                <polygon id="Fill-12" fill="#FFFFFF" mask="url(#mask-4)" points="157 78 185 78 185 85.1609755 175.605661 85.1609755 175.605661 107 166.393209 107 166.393209 85.1609755 157 85.1609755"></polygon>
                <path d="M195.947551,93.0599186 C195.947551,95.9882362 196.490143,98.0930846 197.576424,99.3722652 C198.662704,100.651995 200.140704,101.291861 202.009875,101.291861 C203.932263,101.291861 205.420138,100.665189 206.473501,99.4123942 C207.526316,98.1590501 208.054095,95.910177 208.054095,92.6641258 C208.054095,89.9337047 207.503822,87.938249 206.404374,86.6788581 C205.305475,85.4189174 203.814308,84.7883974 201.930873,84.7883974 C200.127537,84.7883974 198.679163,85.4277128 197.586299,86.7068934 C196.493983,87.9871734 195.947551,90.1046652 195.947551,93.0599186 M187,93.0203394 C187,88.284018 188.317252,84.5965478 190.950112,81.9584784 C193.583519,79.3198593 197.250539,78 201.951172,78 C206.76976,78 210.482865,79.2967714 213.089938,81.8897644 C215.697012,84.4816579 217,88.1125078 217,92.7828636 C217,96.1729395 216.431074,98.9544838 215.292125,101.123649 C214.153177,103.293363 212.507845,104.982079 210.354486,106.189797 C208.201675,107.396416 205.518891,108 202.306682,108 C199.041257,108 196.338722,107.479422 194.199627,106.437168 C192.059983,105.394364 190.325774,103.745227 188.995355,101.489757 C187.664935,99.2337377 187,96.4109649 187,93.0203394" id="Fill-13" fill="#FFFFFF" mask="url(#mask-4)"></path>
                <path d="M240.991815,78 L250,78 L250,95.5734089 C250,97.316217 249.730397,98.9617678 249.193404,100.510061 C248.655305,102.058913 247.81051,103.412692 246.661236,104.572515 C245.512515,105.731219 244.30622,106.54561 243.045118,107.015129 C241.291312,107.671896 239.184863,108 236.727984,108 C235.305232,108 233.75515,107.899948 232.073866,107.699285 C230.392582,107.496944 228.987544,107.098972 227.858199,106.502012 C226.729408,105.90673 225.696943,105.057684 224.759698,103.958787 C223.82356,102.85989 223.181937,101.726338 222.83649,100.560367 C222.278461,98.6839693 222,97.02165 222,95.5734089 L222,78 L231.007632,78 L231.007632,95.9920629 C231.007632,97.600164 231.449958,98.857244 232.332397,99.7616262 C233.215944,100.667126 234.442169,101.119317 236.009965,101.119317 C237.565028,101.119317 238.783503,100.673275 239.667049,99.7823073 C240.550042,98.890781 240.991815,97.6275525 240.991815,95.9920629 L240.991815,78 Z" id="Fill-14" fill="#FFFFFF" mask="url(#mask-4)"></path>
                <polygon id="Fill-15" fill="#FFFFFF" mask="url(#mask-4)" points="254 78 282 78 282 85.1609755 272.606036 85.1609755 272.606036 107 263.393399 107 263.393399 85.1609755 254 85.1609755"></polygon>
                <polygon id="Fill-16" fill="#FFFFFF" mask="url(#mask-4)" points="198 53.6819878 198 65 165 65 165 19 179.423704 19 179.423704 53.6819878"></polygon>
                <polygon id="Fill-17" fill="#FFFFFF" mask="url(#mask-4)" points="238 54.0168004 238 65 203 65 203 19 238 19 238 29.6500695 216.99867 29.6500695 216.99867 36.3065031 233.959598 36.3065031 233.959598 46.4922094 216.99867 46.4922094 216.99867 54.0168004"></polygon>
                <path d="M268.872067,47.9946595 L282,47.9691152 C281.382156,53.5472311 279.263435,57.5599206 275.636596,60.5341754 C272.009756,63.5106514 267.553925,65 262.268545,65 C255.910712,65 250.775196,62.9542281 246.86534,58.8521332 C242.956042,54.7555915 241,49.0986212 241,41.8834434 C241,34.7349032 242.851304,28.9707575 246.553911,24.581566 C250.261533,20.1934851 255.428804,18 262.063525,18 C268.259237,18 273.027054,19.6698253 276.356393,23.0039226 C279.683503,26.3413519 281.563776,30.4489998 282,35.9660314 L268.602421,35.9293808 C268.602421,33.3710552 267.569524,31.2514267 266.797916,30.3840283 C265.595654,29.02851 264.17946,28.3488073 262.553232,28.3488073 C258.015504,28.3488073 255.746919,32.7835344 255.746919,41.6502121 C255.746919,46.6219266 256.335793,49.9960065 257.515212,51.7785602 C258.69686,53.5622246 260.352615,54.4535014 262.482478,54.4535014 C266.320465,54.4535014 268.37456,53.4239517 268.872067,47.9946595" id="Fill-18" fill="#FFFFFF" mask="url(#mask-4)"></path>
                <path d="M134.319519,43.9118529 L137.999168,29.3640487 L141.68159,43.9118529 L134.319519,43.9118529 Z M145.494853,19 L130.393156,19 L116,65 L129.261041,65 L132.057508,55.9449172 L144.472512,55.9449172 L147.093784,65 L160,65 L145.494853,19 Z" id="Fill-19" fill="#FFFFFF" mask="url(#mask-4)"></path>
            </g>
        </g>
    </g>
</svg>